<svg xmlns="http://www.w3.org/2000/svg" viewBox="0 0 410 404" fill="none">
  <defs>
    <linearGradient id="v1" x1="38.8" x2="184.4" y1="-3.3" y2="254.7" gradientUnits="userSpaceOnUse">
      <stop stop-color="#41D1FF" />
      <stop offset="1" stop-color="#BD34FE" />
    </linearGradient>
    <linearGradient id="v2" x1="238.6" x2="292.2" y1="102.1" y2="176.1" gradientUnits="userSpaceOnUse">
      <stop stop-color="#FFEA83" />
      <stop offset=".08" stop-color="#FFDD35" />
      <stop offset="1" stop-color="#FFA800" />
    </linearGradient>
  </defs>
  <path fill="url(#v1)" d="M399.2 59.3 215.6 388.1c-3.8 6.9-13.7 6.9-17.5 0L10.8 59.3c-4.2-7.5 2.1-16.5 10.8-15.2l182.9 28.3a10 10 0 0 0 3.1 0l180.8-28.2c8.7-1.3 15 7.7 10.8 15.2Z"/>
  <path fill="url(#v2)" d="M292.3 5.3 156.3 27.8c-2 .3-3.5 2-3.7 4l-8.4 142c-.2 3.4 3 6.1 6.3 5.2l37.8-10.2c3.6-1 6.9 2.3 5.9 5.9l-11.2 39.3c-1 3.6 2.3 6.9 5.9 5.9l23.4-6.3c3.6-1 6.9 2.3 5.9 5.9l-17.8 62.4c-1.1 3.8 3.6 6.6 6.3 3.5l3.3-3.9 110-219.7c1.8-3.5-.9-7.6-4.8-7z"/>
</svg>
